<svg xmlns="http://www.w3.org/2000/svg" width="188.105" height="64.703" viewBox="0 0 188.105 64.703">
  <g id="Gruppe_2" data-name="Gruppe 2" transform="translate(-522.679 -488.682)">
    <path id="Pfad_1" data-name="Pfad 1" d="M69.761-274h-28.1v8.491H67.486v14.968H41.664v8.753h28.8l-1.05,14.968H24.42V-288.97H69.761Zm6.74,47.179V-288.97H94.008v46.917h25.909l-1.05,15.23Zm48.317,0v-36.34h17.506v36.34Zm19.344,0,27.4-62.147h14.53l26.434,62.147H194.844l-4.377-11.117H166.4l-4.552,11.117Zm28.185-25.559H184.69l-6.04-15.23Z" transform="translate(498.259 780.208)" fill="#283618"/>
    <g id="Gruppe_1" data-name="Gruppe 1" transform="translate(621.303 488.682)">
      <g id="agronomy" transform="translate(0 0)">
        <path id="Pfad_2" data-name="Pfad 2" d="M10.86-511.6c-.082.009-.337.039-.561.06a11.051,11.051,0,0,0-4.274,1.45,11.186,11.186,0,0,0-3.9,3.9,11.24,11.24,0,0,0-1.459,4.274,16.257,16.257,0,0,0,0,2.633,11.253,11.253,0,0,0,2,5.146l.242.337-.108.259a1.6,1.6,0,0,0,.354,1.792,1.559,1.559,0,0,0,.928.466,1.637,1.637,0,0,0,1.8-2.033,1.646,1.646,0,0,0-2.133-1.118l-.181.065-.255-.354a10.356,10.356,0,0,1-1.779-4.6A13.516,13.516,0,0,1,1.548-502a10.209,10.209,0,0,1,1.606-4.187,10.06,10.06,0,0,1,3.972-3.51,10.233,10.233,0,0,1,3.087-.967,12.826,12.826,0,0,1,2.849,0c.25.039.566.086.7.1.233.022.255.017.376-.108a.4.4,0,0,0-.121-.673,8.3,8.3,0,0,0-2.163-.263C11.391-511.613,10.942-511.609,10.86-511.6ZM4.644-493.573a.758.758,0,0,1,0,1.364.7.7,0,0,1-.682,0,.765.765,0,0,1,.009-1.381A.716.716,0,0,1,4.644-493.573Z" transform="translate(-0.612 511.609)" fill="#283618"/>
        <path id="Pfad_3" data-name="Pfad 3" d="M338.3-493.922a.4.4,0,0,0-.065.622.326.326,0,0,0,.306.142.419.419,0,0,0,.384-.6.432.432,0,0,0-.384-.246A.424.424,0,0,0,338.3-493.922Z" transform="translate(-323.548 494.76)" fill="#283618"/>
        <path id="Pfad_4" data-name="Pfad 4" d="M212.195-471.814a1.652,1.652,0,0,0-1.148,1.994,1.646,1.646,0,0,0,2.133,1.118l.181-.065.255.354a10.356,10.356,0,0,1,1.779,4.6,13.516,13.516,0,0,1-.017,2.676,10.209,10.209,0,0,1-1.606,4.187,10.06,10.06,0,0,1-3.971,3.51,10.234,10.234,0,0,1-3.087.967,12.981,12.981,0,0,1-2.836,0c-.479-.065-.544-.065-.66,0a.372.372,0,0,0-.216.384c0,.367.255.458,1.533.548a11,11,0,0,0,10.27-5.4,11.24,11.24,0,0,0,1.459-4.274,16.261,16.261,0,0,0,0-2.633,11.253,11.253,0,0,0-2-5.146l-.242-.337.108-.259a1.6,1.6,0,0,0-.354-1.792,1.544,1.544,0,0,0-.842-.453A1.366,1.366,0,0,0,212.195-471.814Zm.768.885a.765.765,0,0,1-.009,1.381.7.7,0,0,1-.673-.017.754.754,0,0,1,0-1.36A.7.7,0,0,1,212.963-470.929Z" transform="translate(-194.263 473.593)" fill="#283618"/>
        <path id="Pfad_5" data-name="Pfad 5" d="M149.517-446.538a4.672,4.672,0,0,0-1.135,1.062,4.13,4.13,0,0,0-.527,1.153,4.453,4.453,0,0,0-.073,1.494,1.759,1.759,0,0,1,.039.345.705.705,0,0,1-.233-.052,4.882,4.882,0,0,0-1.671-.043c-.44.091-.566.16-.648.358a4.2,4.2,0,0,0-.03,2.15,3.688,3.688,0,0,0,.587,1.144,3.846,3.846,0,0,1,.233.324.672.672,0,0,1-.181.043.733.733,0,0,0-.609.358,4.173,4.173,0,0,0-.03,2.141,3.529,3.529,0,0,0,.881,1.489,3.717,3.717,0,0,0,1.157.842,3.073,3.073,0,0,0,1.558.306h.635v1.433c0,1.541.009,1.61.22,1.722a.382.382,0,0,0,.479-.065l.142-.125.013-1.485.013-1.481h.635a3.066,3.066,0,0,0,1.554-.306,3.717,3.717,0,0,0,1.157-.842,3.528,3.528,0,0,0,.881-1.489,4.173,4.173,0,0,0-.03-2.141.731.731,0,0,0-.6-.358.6.6,0,0,1-.186-.048,2.935,2.935,0,0,1,.212-.289,3.838,3.838,0,0,0,.609-1.174,4.1,4.1,0,0,0-.043-2.163c-.086-.2-.246-.285-.717-.367a5.336,5.336,0,0,0-1.589.065.711.711,0,0,1-.229.052,1.3,1.3,0,0,1,.035-.311,4.687,4.687,0,0,0-.091-1.606,3.893,3.893,0,0,0-.561-1.148,5.028,5.028,0,0,0-1.006-.95A.627.627,0,0,0,149.517-446.538Zm.743,1.049a2.735,2.735,0,0,1,.924,1.964,2.737,2.737,0,0,1-.544,1.852,3.21,3.21,0,0,1-.73.673,1.938,1.938,0,0,1-.3-.229,2.675,2.675,0,0,1-.989-1.951,2.88,2.88,0,0,1,.3-1.489,2.261,2.261,0,0,1,.535-.721,1.564,1.564,0,0,1,.44-.358A1.2,1.2,0,0,1,150.259-445.489Zm-2.97,3.777a3.015,3.015,0,0,1,2.059,1.943,2.436,2.436,0,0,1,.1.829,1.543,1.543,0,0,1-.052.578,1.253,1.253,0,0,1-.432.069,2.767,2.767,0,0,1-2.357-1.045,2.609,2.609,0,0,1-.635-1.74c0-.509.03-.648.147-.669A4.649,4.649,0,0,1,147.289-441.712Zm6.484-.009a3.607,3.607,0,0,1-.009,1.278,2.867,2.867,0,0,1-2.927,2.15,1.378,1.378,0,0,1-.423-.06,1.5,1.5,0,0,1-.069-.406,2.782,2.782,0,0,1,.3-1.463,3.064,3.064,0,0,1,1.848-1.494A4.5,4.5,0,0,1,153.773-441.721Zm-6.454,4.041a2.828,2.828,0,0,1,1.774,1.351,2.386,2.386,0,0,1,.354,1.4,1.525,1.525,0,0,1-.052.578,2.687,2.687,0,0,1-1.178.022,3.008,3.008,0,0,1-2.12-1.882,3.677,3.677,0,0,1-.108-1.312c.035-.224.039-.229.613-.237A2.663,2.663,0,0,1,147.319-437.68Zm6.454-.026a3.372,3.372,0,0,1,.035.626,2.13,2.13,0,0,1-.1.872,2.9,2.9,0,0,1-.743,1.122,2.68,2.68,0,0,1-2.107.807,1.524,1.524,0,0,1-.445-.06,1.5,1.5,0,0,1-.069-.406,2.881,2.881,0,0,1,1.64-2.763,4.465,4.465,0,0,1,.518-.194A4.433,4.433,0,0,1,153.773-437.706Z" transform="translate(-138.876 449.487)" fill="#283618"/>
        <path id="Pfad_6" data-name="Pfad 6" d="M155.019-37.211a.421.421,0,0,0-.16.7.416.416,0,0,0,.574,0,.3.3,0,0,0,.134-.3A.405.405,0,0,0,155.019-37.211Z" transform="translate(-148.082 57.708)" fill="#283618"/>
      </g>
    </g>
  </g>
</svg>
