<svg xmlns="http://www.w3.org/2000/svg" width="34" height="34" viewBox="0 0 34 34">
  <g id="Gruppe_28" data-name="Gruppe 28" transform="translate(-482 -4696)">
    <rect width="34" height="34" rx="5" transform="translate(482 4696)" fill="#fff"/>
    <g id="instagram" transform="translate(488.551 4703)">
      <path d="M21,6.058a7.53,7.53,0,0,0-.479-2.5A5.279,5.279,0,0,0,17.505.543a7.549,7.549,0,0,0-2.5-.479C13.9.012,13.552,0,10.755,0S7.607.012,6.508.06a7.532,7.532,0,0,0-2.5.479A5.028,5.028,0,0,0,2.18,1.731,5.074,5.074,0,0,0,.993,3.555a7.55,7.55,0,0,0-.479,2.5C.461,7.157.449,7.508.449,10.305s.012,3.148.06,4.247a7.529,7.529,0,0,0,.479,2.5A5.278,5.278,0,0,0,4,20.067a7.55,7.55,0,0,0,2.5.479c1.1.048,1.449.06,4.247.06s3.148-.012,4.247-.06a7.528,7.528,0,0,0,2.5-.479,5.271,5.271,0,0,0,3.015-3.015,7.555,7.555,0,0,0,.479-2.5c.048-1.1.06-1.449.06-4.247S21.048,7.157,21,6.058Zm-1.856,8.413a5.648,5.648,0,0,1-.354,1.912,3.418,3.418,0,0,1-1.956,1.956,5.668,5.668,0,0,1-1.912.354c-1.087.048-1.413.06-4.162.06s-3.08-.012-4.163-.06a5.645,5.645,0,0,1-1.912-.354A3.171,3.171,0,0,1,3.5,17.572a3.2,3.2,0,0,1-.769-1.183,5.669,5.669,0,0,1-.354-1.912c-.048-1.087-.06-1.413-.06-4.163s.012-3.08.06-4.162a5.645,5.645,0,0,1,.354-1.912A3.132,3.132,0,0,1,3.5,3.055a3.2,3.2,0,0,1,1.183-.769A5.672,5.672,0,0,1,6.6,1.932c1.087-.048,1.413-.06,4.162-.06s3.08.012,4.163.06a5.648,5.648,0,0,1,1.912.354,3.169,3.169,0,0,1,1.183.769,3.2,3.2,0,0,1,.769,1.184,5.671,5.671,0,0,1,.354,1.912c.048,1.087.06,1.413.06,4.162S19.192,13.385,19.144,14.472Zm0,0" transform="translate(0 0)" fill="#283618"/>
      <path d="M130.243,124.5a5.294,5.294,0,1,0,5.294,5.294A5.295,5.295,0,0,0,130.243,124.5Zm0,8.727a3.434,3.434,0,1,1,3.434-3.434A3.434,3.434,0,0,1,130.243,133.227Zm0,0" transform="translate(-119.488 -119.488)" fill="#283618"/>
      <path d="M364.921,89.837a1.236,1.236,0,1,1-1.236-1.236A1.236,1.236,0,0,1,364.921,89.837Zm0,0" transform="translate(-347.427 -85.035)" fill="#283618"/>
    </g>
  </g>
</svg>
