<?xml version="1.0" encoding="UTF-8" standalone="no"?>
<!-- Created for MapSVG plugin: http://mapsvg.com -->
<svg
   xmlns="http://www.w3.org/2000/svg"
   width="918.78973"
   height="392.42786">

  <path
     d="m 557.76553,147.89283 6.07,1.38 3.76,3.27 -0.29,5.19 -8.43,3.24 -3.79,-0.21 -1.6,-2.09 -3,-1.33 -4.39,-3.85 -1.43,-2.16 2.21,0.44 2.29,-2.65 2.83,-1.21 3.63,-0.67 2.14,0.65 z m -83.54,-34.03 0.92,1.22 2.29,0.83 2,-1 1.28,1.09 -0.36,0.81 1.05,1.53 1.26,1.1 1.92,-0.07 1.05,1.32 -0.26,0.78 -1.62,-0.32 -0.56,1.27 0.23,1.55 1.95,0.42 -0.51,0.68 0.6,1.53 -1.85,1.46 0.61,3.37 0.78,0.34 -0.36,1.48 0.93,0.44 -0.74,2.24 -1.17,-1.35 -1.99,2.17 -2.11,0.58 -2.21,0.33 -2.13,1.12 0.21,0.8 -1.74,0.19 -0.57,0.73 -0.36,-1.68 -1.69,-0.14 -1.61,-1.21 0.37,-1.66 -1.64,-1.64 -1.37,-0.49 -4.15,0.6 -0.29,-1.71 -1.11,-0.29 -0.09,-2.85 1.84,-6.06 2.26,-3.3 0.25,-2.36 2.15,-0.18 0.95,-1.69 1.36,-0.28 3.49,-2.44 0.74,0.74 z m 139.62,-111.6799989 1.43,-0.87 2.02,2.16 3.34,1.38 1.89,0.2 1.7,-0.75 2.71,0.44 1.75,1.68 4.93,1.8 0.96,-0.35 1.07,1.36 1.38,0.56 1.53,-0.25 0.74,0.8399999 -0.77,1.29 3.68,3.77 3.47,1.41 2.17,0.08 0.57,2.86 -1.05,1.71 0.8,3.07 -0.39,2.33 1.06,3.08 -0.12,3.03 0.95,1.78 -0.1,4.14 1.53,0.82 0.61,3.97 -0.52,4.43 -3.14,2.67 -1.63,0.36 -2.95,-2.12 -2.23,0.3 -0.55,1.21 -1.41,0.14 -0.93,2.61 -2,0.64 -0.39,2.02 -2.1,0.38 -2.96,3.13 -4.23,0.43 -1.26,-1.21 -1.79,0.83 -0.46,1.96 1.1,2.01 -0.92,1.93 0.31,2.11 -1.09,0.34 -0.39,0.88 0.68,1.69 2.06,2.04 -1.36,1.12 0.07,1.2 -1.74,1.4 0.46,0.55 2.26,-0.14 -0.38,1.53 -1.69,1.59 0.07,1.14 1.57,2.57 -0.24,1.17 1.06,0.17 2.53,2.32 -0.82,2.51 -2.89,1.66 3.04,4.64 -3.43,0.66 -1.61,1.57 -1.37,-0.48 -0.12,1.17 1.26,2.179999 -0.71,0.98 -1.52,0.11 -1.21,-2.489999 -0.88,1.369999 -0.22,2.54 -1.36,-0.46 -0.36,-0.53 -0.55,0.01 0,2.74 -1.56,0.19 0.77,1.32 -0.85,0 0,0.85 1.02,0.28 -0.61,1.71 -0.73,-0.09 -0.75,0.33 -2.39,1.97 -1,-0.01 -2.49,4.64 -0.33,3.39 -4.48,1.75 -3.39,-0.29 -0.37,-1.13 -0.02,-0.83 0.31,-1.36 0.15,-0.84 -0.35,-0.9 -0.12,-0.59 -0.97,-2.11 0.48,-0.35 1.25,-0.18 0.04,-1.07 1.97,-1.22 -1.28,-1.11 0,0.74 -2.83,-0.6 -0.41,1.71 -1.21,0.64 -0.85,-1.44 -3.11,-2.17 -0.61,-0.32 -3.36,-0.52 -3.82,0.67 -7.21,-1.1 -5.13,0.7 -12.61,-2.76 -2.33,1.28 -1.19,-0.24 -3.84,-1.65 -0.14,-0.9 -4.82,-1.93 -6.69,-1.47 -1.52,-2.909999 -1.29,-0.59 -4.02,-0.58 -2.83,1.52 -0.61,1.05 -0.73,-0.13 0.08,-0.92 -0.65,-0.52 -6.78,-0.52 -0.92,-1.06 -3.09,-0.71 -0.44,-0.72 0.33,-0.9 1.07,-2.23 0.92,0 1.62,-1.28 -1.28,-0.43 -1.52,-0.97 -1.65,0.49 0.38,0.56 -3.58,-0.65 -2.7,0.69 0.11,0.56 -4.85,4.24 -1,3.66 -3.32,-0.18 -6.52,2.519999 -6.73,7.4 -0.69,-0.05 -3.01,-1.3 -4.32,0.71 -1.98,-0.28 -0.48,-0.32 1.25,0.06 0.32,-1 -0.73,-0.06 -3.22,-0.7 -2.92,1.49 -2.67,-5.32 -0.8,-0.2 -0.28,-0.789999 0.66,-0.87 -1.7,-0.18 -0.62,-1.5 -0.26,-0.3 0.69,-0.65 -0.77,-1.08 -0.63,-0.17 -1.08,-0.3 -3.13,-0.4 -3.38,0.82 -0.26,1.09 -3.78,-0.08 -1.26,1.63 -0.45,-0.67 -1.22,0.1 -1.44,2.849999 -1.08,0.2 -0.61,1.08 -1.47,-0.15 -1.18,2.23 -0.79,-0.22 -0.52,0.67 0.04,1.23 1.84,1 -0.51,1.75 -1.1,-0.84 -0.94,0.53 -0.22,2.07 0.72,0.63 1.64,-0.8 0.69,0.6 -5.23,1.89 -12.76,8.46 -4.57,1.9 -3.73,0.43 -4,-1.32 -7.92,-3.11 -4.08,-2.79 0,0 -0.43,-2.18 0.9,-1.1 1.41,-1.1 3.01,0.25 1.22,-0.67 3.91,-2.95 1.09,-2.61 3.33,-2.95 2.63,-0.08 0.13,-3.169999 1.47,-0.08 1.28,0.93 0.58,-0.34 -0.51,-2.03 1.79,-3.12 -0.51,-2.2 0.83,-2.79 -7.49,-6 0.71,-2.79 -0.32,-1.1 -4.8,-3.13 -2.75,3.22 -1.22,0.34 -7.3,-5.42 -5.38,-1.95 -4.29,-5.25 -2.5,-0.42 -0.45,-0.68 0.83,-1.95 -1.67,-1.78 -0.7,-2.88 1.73,-3.48 -0.13,-2.46 -1.67,-1.19 -5.57,-0.85 -0.7,-6.78 0,0 1.56,-0.38 0.3,-1.82 2.25,-1.81 1.8,0.7 3.19,-0.42 2.66,0.64 0.66,0.7 2,-2.28 1.01,-2.55 4.54,-0.4 0.56,-1.12 2,-0.5 1.11,0.41 1.35,-0.94 0.6,-2.66 1.59,0.95 1.12,2.67 2.63,1.43 3.99,-3.51 0.75,1.59 2.09,0.18 2.17,-1.71 -1.11,-2.33 0.04,-4.43 1.13,-0.9 0.4,-1.27 2.17,-1 1.36,1.23 1.24,-0.11 0.26,0.81 2.23,-0.27 0.21,0.92 1.14,0.8 -0.14,0.63 1.04,0.23 2.34,-4.27 1.79,0.25 0.98,-1.7 1.92,-1.22 1.12,0.66 -0.39,1.15 2.84,2.4 -0.5,1.39 0.69,1.81 3.12,-1.8 2.43,1.1 1.65,-2.31 1.86,-0.37 0.9,1.18 2.18,0.11 1.08,0.84 0.95,-0.74 0.11,-1.86 1.02,-0.96 4.6,-1.97 0.75,0.4 0.02,1.03 0.8,-0.18 0.92,0.86 -0.64,1.19 1.45,2.81 -0.24,1.67 1.18,3.2 2.12,1.38 0.09,2.74 1.4,2 3.72,-1.25 0.72,0.43 -0.38,1.72 2.22,-0.93 0.98,0.73 3.13,0.36 1.52,4.09 5.21,4.16 1.09,-1.02 0.58,-3.78 -0.35,-1.66 4.94,1.11 0.73,-0.11 1.1,-1.6 1.92,-0.23 2.39,2.53 3.3,1.26 6.77,1.3 2.14,2.81 1.74,0.81 1.88,-0.58 1.34,1.87 4.11,1.56 0.19,1.19 3.58,2.27 1.04,3.95 2.87,0.32 1.71,1.09 1.39,-1.24 3.23,0.51 2.93,-2.21 1.41,0.39 2.82,-1.12 1.12,0.15 0.36,-1.14 3.95,-1.55 2.44,0.17 2.53,1.08 1.21,-3.65 1.53,-1.09 4.68,1.57 4.02,-1.18 2.44,0.94 1.99,1.74 1.17,-3.12 2.31,0.26 1.4,-1.07 1.53,0.38 1,-1.37 2.43,-0.49 0.63,-1.18 2.69,2.29 1.61,-0.07 -0.18,1.77 1.14,0.95 1.97,-0.25 2.91,-1.52 2.86,0.25 2.62,-0.86 0.81,-2.08 2.52,-0.85 4.67,0.45 0.95,-1.18 2.92,0.1 0.54,-2.35 1.07,-0.33 0.93,-1.63 0.44,-1.95 -0.5,-1.52 1.02,-1.37 2.77,-0.35 -2.26,-3.41 -1.51,-0.67 -0.43,-1.32 0.06,-0.81 1.45,-0.69 0.16,-1.55 1.17,-1.49 -0.72,-4.17 -2.68,-0.3 0.53,-5.95 -1.39,-1.12 -0.1,-2.15 -1.25,0.25 -0.41,0.86 -2.19,-0.45 -0.33,-1.68 -1.23,-0.26 -0.69,-0.88 -0.83,-4.5799999 0.83,-2.54 1.35,-0.8 2.4,0.42 0.8,-1.9 3.97,-2.31 0.81,-0.1 1.61,1.57 1.91,0.35 z"
     title="East Macedonia and Thrace"
     id="GR-A" />
</svg>
